<svg xmlns="http://www.w3.org/2000/svg" height="20" viewBox="0 -960 960 960" width="20"><path d="M514-254q14-14 14-34t-14-34q-14-14-34-14t-34 14q-14 14-14 34t14 34q14 14 34 14t34-14ZM480-96q-79 0-149-30t-122.5-82.5Q156-261 126-331T96-480q0-80 30-149.5t82.5-122Q261-804 331-834t149-30q80 0 149.5 30t122 82.5Q804-699 834-629.5T864-480q0 79-30 149t-82.5 122.5Q699-156 629.5-126T480-96Zm2.99-554Q508-650 527-635.03q19 14.98 19 38.44Q546-576 533.31-559q-12.7 17-29.31 31-23 20-42 44t-19 54q0 15 10.6 25t25.4 10q15.67 0 26.83-10.5Q517-416 520-432q4-21 18-37.29 14-16.3 30-30.65 23-21.06 39-47.75T623-605q0-51-41.5-83.5T485.32-721q-38.47 0-72.39 17Q379-687 357-655q-8 11.08-4.5 24.04Q356-618 367-609q14 11 30 6.5t27-18.5q11-14 26.35-21.5 15.35-7.5 32.64-7.5Z"/></svg>
