<svg xmlns="http://www.w3.org/2000/svg" height="20" viewBox="0 -960 960 960" width="20"><path d="M514-254q14-14 14-34t-14-34q-14-14-34-14t-34 14q-14 14-14 34t14 34q14 14 34 14t34-14ZM480-96q-79 0-149-30t-122.5-82.5Q156-261 126-331T96-480q0-80 30-149.5t82.5-122Q261-804 331-834t149-30q80 0 149.5 30t122 82.5Q804-699 834-629.5T864-480q0 79-30 149t-82.5 122.5Q699-156 629.5-126T480-96Zm0-72q130 0 221-91t91-221q0-130-91-221t-221-91q-130 0-221 91t-91 221q0 130 91 221t221 91Zm0-312Zm3-172q26 0 44.5 16t18.5 41q0 22-13 39t-30 31q-23 20-41 45t-17 56q0 14 10 22.5t24 8.5q14 0 24-8.5t13-22.5q5-22 19-39t30-32q23-22 37.5-49t14.5-58q0-51-39.5-84.5T484-720q-38 0-71.5 16.5T359-655q-8 12-4.5 26t16.5 20q14 7 28 3t23-15q11-14 27-22.5t34-8.5Z"/></svg>
